<?xml version="1.0" encoding="utf-8"?>
<!-- Generator: Adobe Illustrator 22.0.0, SVG Export Plug-In . SVG Version: 6.00 Build 0)  -->
<svg version="1.1" id="Layer_1" xmlns="http://www.w3.org/2000/svg" xmlns:xlink="http://www.w3.org/1999/xlink" x="0px" y="0px"
	 viewBox="0 0 420 174" style="enable-background:new 0 0 420 174;" xml:space="preserve">
<style type="text/css">
	.st0{fill:#FF6600;}
</style>
<g>
	<g>
		<path class="st0" d="M301.9,101.7c-0.9,0-1.7,0.4-2.5,1.1c-2,1.8-4.5,2.7-7.5,2.7c-1.6,0-3.1-0.3-4.5-0.9
			c-1.4-0.6-2.7-1.4-3.7-2.4c-1.1-1.1-1.9-2.3-2.5-3.7c-0.6-1.4-0.9-2.9-0.9-4.5V81.8h14.9c1,0,1.7-0.3,2.4-0.9c0.6-0.6,1-1.4,1-2.3
			c0-0.9-0.3-1.7-1-2.4c-0.7-0.7-1.4-1-2.4-1h-14.9v-7.4c0-0.9-0.3-1.7-1-2.4c-0.3-0.3-0.7-0.5-1.1-0.7c-0.4-0.2-0.9-0.3-1.3-0.3
			c-0.9,0-1.7,0.3-2.3,1c-0.7,0.7-1,1.5-1,2.4V94c0,2.5,0.5,4.9,1.4,7.1c1,2.2,2.3,4.2,4,5.8c1.7,1.7,3.6,2.9,5.9,3.9
			c2.2,0.9,4.6,1.4,7.1,1.4c4.7,0,8.7-1.5,11.9-4.5c0.4-0.4,0.7-0.8,0.9-1.3c0.2-0.5,0.3-1,0.3-1.5c0-0.9-0.3-1.6-0.9-2.2
			C303.4,102,302.7,101.7,301.9,101.7z"/>
		<path class="st0" d="M341.2,98.3c-0.4-0.3-0.8-0.5-1.2-0.6c-0.9-0.2-1.8-0.1-2.5,0.4c-0.5,0.3-1,0.9-1.4,1.6
			c-0.5,0.9-1,1.7-1.6,2.3c-0.6,0.6-1.5,1.3-2.5,2c-1.1,0.7-2.3,1.2-3.6,1.5c-1.3,0.3-2.5,0.3-3.8,0.2c-1.3-0.2-2.5-0.6-3.6-1.1
			c-1.1-0.6-2.2-1.3-3.1-2.2l22.3-13.9c0.8-0.5,1.3-1.2,1.5-2c0.2-0.8,0-1.6-0.4-2.4c-1.3-2.1-3-3.8-5-5.2c-2-1.4-4.2-2.3-6.5-2.9
			c-2.3-0.5-4.7-0.6-7.1-0.2c-2.4,0.4-4.6,1.2-6.7,2.5c-2.1,1.3-3.9,3-5.3,5c-1.4,2-2.4,4.2-2.9,6.5c-0.6,2.3-0.6,4.7-0.3,7.1
			c0.4,2.4,1.2,4.7,2.6,6.8c1.3,2.1,3,3.9,5,5.3c2,1.4,4.2,2.4,6.5,2.9c2.3,0.5,4.7,0.6,7.1,0.2c2.4-0.4,4.7-1.2,6.8-2.6
			c1.3-0.8,2.4-1.6,3.4-2.5c1-0.9,1.8-1.8,2.5-2.7c1.4-2,1.7-3.6,0.9-4.9C341.9,98.9,341.6,98.6,341.2,98.3z M314.7,97.6
			c-0.5-1.2-0.8-2.5-0.8-3.8c-0.1-1.3,0.1-2.6,0.5-3.9c0.4-1.3,1-2.5,1.8-3.5c0.8-1.1,1.9-2,3.1-2.8c1.2-0.8,2.5-1.3,3.9-1.6
			c1.4-0.3,2.7-0.3,4-0.2c1.3,0.2,2.6,0.6,3.8,1.2c1.2,0.6,2.2,1.4,3.1,2.5L314.7,97.6z"/>
		<path class="st0" d="M357.4,85.8c1-1.1,2.2-1.9,3.5-2.6c1.4-0.6,2.8-1,4.3-1c1.3,0,2.5,0.1,3.5,0.4c1.1,0.3,2.1,0.8,3.2,1.5
			l2.6,1.9c0.5,0.3,1,0.4,1.6,0.4c0.3,0,0.7-0.1,1.1-0.2c0.4-0.2,0.8-0.4,1.1-0.6c0.8-0.7,1.2-1.5,1.2-2.4c0-1-0.4-1.9-1.2-2.7
			c-1.6-1.6-3.5-2.8-5.6-3.6c-2.2-0.9-4.5-1.3-6.9-1.3c-2.5,0-4.9,0.5-7.2,1.4c-2.3,1-4.2,2.3-5.9,4c-1.7,1.7-3,3.7-4,6
			c-0.9,2.3-1.4,4.7-1.4,7.2c0,2.5,0.5,4.8,1.4,7c1,2.2,2.3,4.2,4,5.8c1.7,1.7,3.7,2.9,5.9,3.9c2.2,0.9,4.6,1.4,7.1,1.4
			c2.4,0,4.7-0.4,6.9-1.3c2.2-0.9,4.1-2.1,5.6-3.6c0.4-0.4,0.7-0.8,0.9-1.3c0.2-0.5,0.3-1,0.3-1.4c0-0.9-0.4-1.7-1.1-2.4
			c-0.3-0.3-0.7-0.5-1.1-0.6c-0.4-0.2-0.8-0.2-1.1-0.2c-0.5,0-1.1,0.2-1.6,0.5l-2.6,1.8c-1,0.7-2,1.2-3,1.5c-1,0.3-2.2,0.4-3.4,0.4
			c-1.6,0-3.1-0.3-4.5-0.9c-1.4-0.6-2.6-1.5-3.6-2.6c-1-1.1-1.8-2.3-2.4-3.7c-0.6-1.4-0.8-2.9-0.8-4.4c0-1.5,0.3-2.9,0.8-4.3
			C355.6,88.1,356.4,86.9,357.4,85.8z"/>
		<path class="st0" d="M418.8,86.3c-0.8-2.2-2-4.1-3.4-5.7c-1.5-1.6-3.3-2.9-5.4-3.8c-2.1-0.9-4.3-1.4-6.7-1.4
			c-2.3,0-4.5,0.5-6.5,1.5c-2,1-3.8,2.5-5.3,4.3V65.5c0-1-0.3-1.8-1-2.4c-0.7-0.7-1.4-1-2.3-1c-0.5,0-0.9,0.1-1.3,0.3
			c-0.4,0.2-0.8,0.4-1.1,0.7c-0.7,0.7-1,1.5-1,2.4v42.9c0,0.9,0.3,1.7,1,2.4c0.6,0.6,1.4,1,2.4,1c0.9,0,1.7-0.3,2.4-1
			c0.6-0.6,1-1.4,1-2.4V92.9c0-1.5,0.3-2.9,1-4.2c0.7-1.3,1.5-2.5,2.7-3.5c1.1-1,2.4-1.7,3.8-2.3c1.4-0.6,2.9-0.8,4.4-0.8
			c1.5,0,2.9,0.3,4.1,0.8c1.2,0.6,2.3,1.4,3.2,2.4c0.9,1,1.6,2.2,2,3.6c0.5,1.4,0.7,2.8,0.7,4.3v15.3c0,1,0.3,1.7,0.9,2.4
			c0.6,0.6,1.4,0.9,2.3,0.9c0.9,0,1.7-0.3,2.4-0.9c0.7-0.6,1-1.4,1-2.4V93.1C420,90.7,419.6,88.4,418.8,86.3z"/>
		<path class="st0" d="M180.6,100.8c-0.6-0.6-1.3-1.1-2.1-1.4c-0.8-0.3-1.7-0.5-2.6-0.5l-13.2-0.1V68.7c0-0.9-0.2-1.7-0.5-2.5
			c-0.4-0.8-0.8-1.5-1.4-2.1c-0.6-0.6-1.3-1.1-2.1-1.4c-0.8-0.3-1.7-0.5-2.6-0.5c-0.9,0-1.8,0.2-2.6,0.5c-0.8,0.3-1.5,0.8-2.1,1.4
			c-0.6,0.6-1.1,1.3-1.4,2.1c-0.4,0.8-0.5,1.6-0.5,2.5c0,0-0.1,36.3-0.1,36.7c0,1.5,0.5,2.9,1.5,4.2c1,1.2,2.2,2,3.6,2.3l0.3,0.1
			c0.5,0.1,0.9,0.1,1.4,0.1h19.9c0.9,0,1.8-0.2,2.6-0.5c0.8-0.3,1.5-0.8,2.1-1.4c1.3-1.2,1.9-2.8,1.9-4.7c0-0.9-0.2-1.8-0.5-2.6
			C181.7,102.1,181.2,101.4,180.6,100.8z"/>
		<path class="st0" d="M200.8,62.4c-0.7-0.6-1.4-1.1-2.3-1.5c-0.9-0.3-1.7-0.5-2.6-0.5c-0.9,0-1.8,0.2-2.6,0.5
			c-0.8,0.4-1.6,0.8-2.2,1.5c-0.7,0.6-1.2,1.4-1.5,2.2c-0.4,0.8-0.5,1.7-0.5,2.7c0,1,0.2,1.8,0.5,2.7c0.4,0.8,0.9,1.6,1.5,2.2
			c0.7,0.7,1.4,1.2,2.2,1.5c0.8,0.4,1.7,0.5,2.6,0.5c0.9,0,1.8-0.2,2.6-0.5c0.9-0.4,1.6-0.9,2.3-1.5c0.7-0.6,1.2-1.4,1.5-2.2
			c0.4-0.8,0.5-1.7,0.5-2.7c0-1-0.2-1.8-0.5-2.7C201.9,63.7,201.4,63,200.8,62.4z"/>
		<path class="st0" d="M200.6,77.8c-0.6-0.6-1.3-1.1-2.1-1.4c-0.8-0.4-1.6-0.5-2.5-0.5c-0.9,0-1.8,0.2-2.7,0.5
			c-0.8,0.3-1.6,0.8-2.2,1.4c-0.6,0.6-1.1,1.3-1.5,2.1c-0.4,0.8-0.5,1.6-0.5,2.5V106c0,0.9,0.2,1.7,0.5,2.5c0.4,0.8,0.9,1.5,1.5,2.1
			c0.6,0.6,1.3,1.1,2.1,1.4c0.8,0.4,1.7,0.5,2.6,0.5c0.9,0,1.7-0.2,2.5-0.5c0.8-0.3,1.5-0.8,2.1-1.4c0.6-0.6,1.1-1.3,1.4-2.1
			c0.3-0.8,0.5-1.6,0.5-2.5V82.4c0-0.9-0.2-1.7-0.5-2.5C201.7,79.1,201.2,78.4,200.6,77.8z"/>
		<path class="st0" d="M260.5,77.8c-0.6-0.6-1.3-1.1-2.1-1.4c-0.8-0.4-1.6-0.5-2.5-0.5c-0.9,0-1.8,0.2-2.7,0.5
			c-0.8,0.3-1.6,0.8-2.2,1.4c-0.6,0.6-1.1,1.3-1.5,2.1c-0.4,0.8-0.5,1.6-0.5,2.5V106c0,0.9,0.2,1.7,0.5,2.5c0.4,0.8,0.9,1.5,1.5,2.1
			c0.6,0.6,1.3,1.1,2.1,1.4c0.8,0.4,1.7,0.5,2.6,0.5c0.9,0,1.7-0.2,2.5-0.5c0.8-0.3,1.5-0.8,2.1-1.4c0.6-0.6,1.1-1.3,1.4-2.1
			c0.3-0.8,0.5-1.6,0.5-2.5V82.4c0-0.9-0.2-1.7-0.5-2.5C261.5,79.1,261.1,78.4,260.5,77.8z"/>
		<path class="st0" d="M260.6,62.4c-0.7-0.6-1.4-1.1-2.3-1.5c-0.9-0.3-1.7-0.5-2.6-0.5c-0.9,0-1.8,0.2-2.6,0.5
			c-0.8,0.4-1.6,0.8-2.2,1.5c-0.7,0.6-1.2,1.4-1.5,2.2c-0.4,0.8-0.5,1.7-0.5,2.7c0,1,0.2,1.8,0.5,2.7c0.4,0.8,0.9,1.6,1.5,2.2
			c0.7,0.7,1.4,1.2,2.2,1.5c0.8,0.4,1.7,0.5,2.6,0.5c0.9,0,1.8-0.2,2.6-0.5c0.9-0.4,1.6-0.9,2.3-1.5c0.7-0.6,1.2-1.4,1.5-2.2
			c0.4-0.8,0.5-1.7,0.5-2.7c0-1-0.2-1.8-0.5-2.7C261.8,63.7,261.3,63,260.6,62.4z"/>
		<path class="st0" d="M241.4,87.3c0.1-0.1,0.4-0.6,0.5-0.7c0.5-0.7,0.9-1.6,1.1-2.4c0.2-0.7,0.3-1.5,0.3-2.2c0-2.8-1.3-5.3-3.7-6.9
			c-1-0.7-2.1-1.1-3.2-1.3c-2.8-0.5-5.5,0.4-7.5,2.3c0,0-1.4,1.4-3.1,3.1c-1.8-1.8-3.1-3.1-3.1-3.1c-2-2-4.8-2.9-7.6-2.3
			c-1,0.2-2,0.6-2.9,1.2c-2.4,1.6-3.8,4.2-3.8,7c0,0.8,0.1,1.5,0.3,2.2c0.2,0.9,0.6,1.7,1.1,2.4c0.1,0.1,0.4,0.6,0.5,0.7
			c0.9,1.2,1.9,2.3,2.6,3c1.3,1.3,1.3,3.5,0,4.9c-0.8,0.8-2.9,3.4-2.8,3.4l0,0c-0.5,0.7-0.9,1.5-1.2,2.3c-0.3,0.9-0.5,1.8-0.5,2.7
			c0,2.2,0.9,4.4,2.5,5.9c1.8,1.8,4.3,2.7,6.9,2.4c1.9-0.2,3.7-1.2,5.1-2.5l3-3l3,3c1.4,1.4,3.1,2.3,5.1,2.5
			c2.6,0.3,5.1-0.6,6.9-2.4c1.6-1.6,2.5-3.7,2.5-5.9c0-0.9-0.2-1.8-0.5-2.7c-0.3-0.8-0.7-1.6-1.2-2.3c0,0,0,0,0,0
			c0,0-2.1-2.6-2.8-3.4c-1.3-1.3-1.3-3.5,0-4.9C239.5,89.6,240.4,88.5,241.4,87.3z M232.5,94.1c-0.2,0.8-0.7,1.6-1.3,2.3l-10.8,10.8
			c-1.2,1.2-3,1.7-4.7,1.4c-0.6-0.1-1.2-0.4-1.7-0.7c-1.5-1-2.3-2.6-2.3-4.3c0-1.1,0.3-2.2,1-3c0.2-0.3,2.8-3.3,3.1-3.6
			c1.1-1.1,1.7-2.6,1.7-4.2c0-1.6-0.6-3.1-1.7-4.2c-0.2-0.2-2.1-2.3-2.7-3c-0.1-0.1-0.6-0.8-0.7-1.1c-0.6-1.1-0.8-2.4-0.5-3.7
			c0.1-0.6,0.4-1.2,0.7-1.7c1-1.5,2.6-2.3,4.3-2.3c0.7,0,1.4,0.1,2,0.4c0.6,0.3,1.2,0.6,1.6,1.1l10.8,10.8c0.7,0.7,1.2,1.6,1.4,2.5
			l0,0.2c0,0.1,0.1,0.4,0.1,0.4c0,0.1,0,0.5,0,0.5C232.7,93.2,232.6,93.7,232.5,94.1z"/>
	</g>
	<g>
		<path class="st0" d="M132.4,112.9c-1.2-2.8-2.8-5.3-4.7-7.4c-1.8-2.1-4-3.8-6.4-5.3c0,0-9.3-5.1-12.6-6.4
			c-5.6-2.3-8.4-8.8-6.1-14.4c1.2-3,2.6-7.5,3.9-12.1c0.1-0.4,0.4-2.3,0.5-2.7c0.5-2.8,0.6-5.7,0.2-8.6c-0.3-2.4-0.9-4.7-1.9-7
			c-3.5-8.1-10.5-14-19.5-15.9c-3.7-0.8-7.5-0.7-11.1,0.1c-8.9,2-15.8,8-19.1,16.2c0,0-2.3,5.7-5.3,13.1c-7.4-3-13.1-5.3-13.1-5.3
			c-8.3-3.4-17.7-2.4-25.4,2.8c-2.8,1.9-5.2,4.3-7.1,7.1C-0.6,75-1.4,84.4,2.2,92.7c1,2.3,2.2,4.3,3.7,6.2c1.8,2.3,3.9,4.2,6.3,5.8
			c0.3,0.2,1.9,1.3,2.3,1.5c4.3,2.3,8.5,4.4,11.4,5.6c5.6,2.3,8.4,8.8,6.1,14.4c-1.3,3.3-4.2,13.6-4.1,13.5v0
			c-0.7,2.7-0.9,5.5-0.7,8.3c0.2,2.9,0.9,5.8,2.1,8.6c2.8,6.6,8,11.8,14.7,14.5c7.7,3.1,16.1,2.6,23.5-1.6c5.4-3.1,9.5-8,11.8-13.8
			l5.1-12.6l12.6,5.1c5.8,2.3,12.2,2.9,18.1,1.1c8.1-2.4,14.4-8.1,17.5-15.8C135.2,126.8,135.2,119.5,132.4,112.9z M90.2,107.8
			l-18.4,45.5c-2.4,6-7.6,10.2-14,11.6c-2.3,0.5-4.7,0.5-7,0c-6.5-1.3-11.6-5.4-14.2-11.3c-1.6-3.8-1.9-7.9-1-11.8
			c0.2-0.9,4.4-13.9,4.7-14.8c1.7-4.1,1.6-8.6-0.1-12.7c-1.7-4.1-4.9-7.2-9-8.9c-1.2-0.5-9.4-4.3-11.9-5.6c-0.3-0.2-2.9-1.8-3.8-2.5
			c-3.7-2.8-6.2-7-7.2-11.7c-0.4-2.3-0.4-4.6,0-6.9c1.3-6.5,5.4-11.6,11.3-14.2c2.4-1,4.9-1.5,7.4-1.5c2.5,0,4.9,0.5,7.2,1.4
			l45.5,18.4c3.4,1.4,6.2,3.6,8.3,6.5c0.1,0.1,0.4,0.6,0.5,0.7c0.2,0.3,0.7,1.2,0.8,1.3c0.2,0.4,0.8,1.6,0.8,1.7
			c0.7,1.6,1.1,3.3,1.4,5C91.9,101.4,91.5,104.7,90.2,107.8z"/>
		<path class="st0" d="M45.5,51.7c13.7-5.8,20.1-21.6,14.3-35.3C54,2.8,38.2-3.7,24.5,2.1C10.8,7.9,4.4,23.8,10.2,37.4
			S31.8,57.5,45.5,51.7z M16.7,19.5c2-4.9,5.7-8.7,10.6-10.8c2.5-1,5.1-1.6,7.7-1.6c2.5,0,5,0.5,7.4,1.5c4.9,2,8.7,5.7,10.8,10.6
			c2.1,4.9,2.1,10.2,0.1,15.1c-2,4.9-5.7,8.7-10.6,10.8c-4.9,2.1-10.2,2.1-15.1,0.1c-4.9-2-8.7-5.7-10.8-10.6
			C14.7,29.8,14.7,24.4,16.7,19.5z"/>
	</g>
</g>
</svg>
